<svg width="327" height="336" viewBox="0 0 327 336" fill="none" xmlns="http://www.w3.org/2000/svg">
<g opacity="0.4">
<circle cx="8" cy="8" r="8" fill="#DADDE2"/>
<circle cx="40" cy="8" r="8" fill="#DADDE2"/>
<circle cx="72" cy="8" r="8" fill="#DADDE2"/>
<circle cx="100" cy="8" r="8" fill="#DADDE2"/>
<circle cx="132" cy="8" r="8" fill="#DADDE2"/>
<circle cx="164" cy="8" r="8" fill="#DADDE2"/>
<circle cx="196" cy="8" r="8" fill="#DADDE2"/>
<circle cx="228" cy="8" r="8" fill="#DADDE2"/>
<circle cx="255" cy="8" r="8" fill="#DADDE2"/>
<circle cx="287" cy="8" r="8" fill="#DADDE2"/>
<circle cx="319" cy="8" r="8" fill="#DADDE2"/>
<circle cx="8" cy="40" r="8" fill="#DADDE2"/>
<circle cx="40" cy="40" r="8" fill="#DADDE2"/>
<circle cx="72" cy="40" r="8" fill="#DADDE2"/>
<circle cx="100" cy="40" r="8" fill="#DADDE2"/>
<circle cx="132" cy="40" r="8" fill="#DADDE2"/>
<circle cx="164" cy="40" r="8" fill="#DADDE2"/>
<circle cx="196" cy="40" r="8" fill="#DADDE2"/>
<circle cx="228" cy="40" r="8" fill="#DADDE2"/>
<circle cx="255" cy="40" r="8" fill="#DADDE2"/>
<circle cx="287" cy="40" r="8" fill="#DADDE2"/>
<circle cx="319" cy="40" r="8" fill="#DADDE2"/>
<circle cx="8" cy="72" r="8" fill="#DADDE2"/>
<circle cx="40" cy="72" r="8" fill="#DADDE2"/>
<circle cx="72" cy="72" r="8" fill="#DADDE2"/>
<circle cx="100" cy="72" r="8" fill="#DADDE2"/>
<circle cx="132" cy="72" r="8" fill="#DADDE2"/>
<circle cx="164" cy="72" r="8" fill="#DADDE2"/>
<circle cx="196" cy="72" r="8" fill="#DADDE2"/>
<circle cx="228" cy="72" r="8" fill="#DADDE2"/>
<circle cx="255" cy="72" r="8" fill="#DADDE2"/>
<circle cx="287" cy="72" r="8" fill="#DADDE2"/>
<circle cx="319" cy="72" r="8" fill="#DADDE2"/>
<circle cx="8" cy="104" r="8" fill="#DADDE2"/>
<circle cx="40" cy="104" r="8" fill="#DADDE2"/>
<circle cx="72" cy="104" r="8" fill="#DADDE2"/>
<circle cx="100" cy="104" r="8" fill="#DADDE2"/>
<circle cx="132" cy="104" r="8" fill="#DADDE2"/>
<circle cx="164" cy="104" r="8" fill="#DADDE2"/>
<circle cx="196" cy="104" r="8" fill="#DADDE2"/>
<circle cx="228" cy="104" r="8" fill="#DADDE2"/>
<circle cx="255" cy="104" r="8" fill="#DADDE2"/>
<circle cx="287" cy="104" r="8" fill="#DADDE2"/>
<circle cx="319" cy="104" r="8" fill="#DADDE2"/>
<circle cx="8" cy="136" r="8" fill="#DADDE2"/>
<circle cx="40" cy="136" r="8" fill="#DADDE2"/>
<circle cx="72" cy="136" r="8" fill="#DADDE2"/>
<circle cx="100" cy="136" r="8" fill="#DADDE2"/>
<circle cx="132" cy="136" r="8" fill="#DADDE2"/>
<circle cx="164" cy="136" r="8" fill="#DADDE2"/>
<circle cx="196" cy="136" r="8" fill="#DADDE2"/>
<circle cx="228" cy="136" r="8" fill="#DADDE2"/>
<circle cx="255" cy="136" r="8" fill="#DADDE2"/>
<circle cx="287" cy="136" r="8" fill="#DADDE2"/>
<circle cx="319" cy="136" r="8" fill="#DADDE2"/>
<circle cx="8" cy="168" r="8" fill="#DADDE2"/>
<circle cx="40" cy="168" r="8" fill="#DADDE2"/>
<circle cx="72" cy="168" r="8" fill="#DADDE2"/>
<circle cx="100" cy="168" r="8" fill="#DADDE2"/>
<circle cx="132" cy="168" r="8" fill="#DADDE2"/>
<circle cx="164" cy="168" r="8" fill="#DADDE2"/>
<circle cx="196" cy="168" r="8" fill="#DADDE2"/>
<circle cx="228" cy="168" r="8" fill="#DADDE2"/>
<circle cx="255" cy="168" r="8" fill="#DADDE2"/>
<circle cx="287" cy="168" r="8" fill="#DADDE2"/>
<circle cx="319" cy="168" r="8" fill="#DADDE2"/>
<circle cx="8" cy="200" r="8" fill="#DADDE2"/>
<circle cx="40" cy="200" r="8" fill="#DADDE2"/>
<circle cx="72" cy="200" r="8" fill="#DADDE2"/>
<circle cx="100" cy="200" r="8" fill="#DADDE2"/>
<circle cx="132" cy="200" r="8" fill="#DADDE2"/>
<circle cx="164" cy="200" r="8" fill="#DADDE2"/>
<circle cx="196" cy="200" r="8" fill="#DADDE2"/>
<circle cx="228" cy="200" r="8" fill="#DADDE2"/>
<circle cx="255" cy="200" r="8" fill="#DADDE2"/>
<circle cx="287" cy="200" r="8" fill="#DADDE2"/>
<circle cx="319" cy="200" r="8" fill="#DADDE2"/>
<circle cx="8" cy="232" r="8" fill="#DADDE2"/>
<circle cx="40" cy="232" r="8" fill="#DADDE2"/>
<circle cx="72" cy="232" r="8" fill="#DADDE2"/>
<circle cx="100" cy="232" r="8" fill="#DADDE2"/>
<circle cx="132" cy="232" r="8" fill="#DADDE2"/>
<circle cx="164" cy="232" r="8" fill="#DADDE2"/>
<circle cx="196" cy="232" r="8" fill="#DADDE2"/>
<circle cx="228" cy="232" r="8" fill="#DADDE2"/>
<circle cx="255" cy="232" r="8" fill="#DADDE2"/>
<circle cx="287" cy="232" r="8" fill="#DADDE2"/>
<circle cx="319" cy="232" r="8" fill="#DADDE2"/>
<circle cx="8" cy="264" r="8" fill="#DADDE2"/>
<circle cx="40" cy="264" r="8" fill="#DADDE2"/>
<circle cx="72" cy="264" r="8" fill="#DADDE2"/>
<circle cx="100" cy="264" r="8" fill="#DADDE2"/>
<circle cx="132" cy="264" r="8" fill="#DADDE2"/>
<circle cx="164" cy="264" r="8" fill="#DADDE2"/>
<circle cx="196" cy="264" r="8" fill="#DADDE2"/>
<circle cx="228" cy="264" r="8" fill="#DADDE2"/>
<circle cx="255" cy="264" r="8" fill="#DADDE2"/>
<circle cx="287" cy="264" r="8" fill="#DADDE2"/>
<circle cx="319" cy="264" r="8" fill="#DADDE2"/>
<circle cx="8" cy="296" r="8" fill="#DADDE2"/>
<circle cx="40" cy="296" r="8" fill="#DADDE2"/>
<circle cx="72" cy="296" r="8" fill="#DADDE2"/>
<circle cx="100" cy="296" r="8" fill="#DADDE2"/>
<circle cx="132" cy="296" r="8" fill="#DADDE2"/>
<circle cx="164" cy="296" r="8" fill="#DADDE2"/>
<circle cx="196" cy="296" r="8" fill="#DADDE2"/>
<circle cx="228" cy="296" r="8" fill="#DADDE2"/>
<circle cx="255" cy="296" r="8" fill="#DADDE2"/>
<circle cx="287" cy="296" r="8" fill="#DADDE2"/>
<circle cx="319" cy="296" r="8" fill="#DADDE2"/>
<circle cx="8" cy="328" r="8" fill="#DADDE2"/>
<circle cx="40" cy="328" r="8" fill="#DADDE2"/>
<circle cx="72" cy="328" r="8" fill="#DADDE2"/>
<circle cx="100" cy="328" r="8" fill="#DADDE2"/>
<circle cx="132" cy="328" r="8" fill="#DADDE2"/>
<circle cx="164" cy="328" r="8" fill="#DADDE2"/>
<circle cx="196" cy="328" r="8" fill="#DADDE2"/>
<circle cx="228" cy="328" r="8" fill="#DADDE2"/>
<circle cx="255" cy="328" r="8" fill="#DADDE2"/>
<circle cx="287" cy="328" r="8" fill="#DADDE2"/>
<circle cx="319" cy="328" r="8" fill="#DADDE2"/>
</g>
</svg>
